<svg width="20" height="26" viewBox="0 0 20 26" fill="none" xmlns="http://www.w3.org/2000/svg">
<path d="M19.7 23.9005H17.2375V21.6242C17.2375 19.7385 15.5838 18.2099 13.5437 18.2099H6.15625C4.11625 18.2099 2.4625 19.7385 2.4625 21.6242V23.9005H0V21.6242C0 18.4814 2.75625 15.9336 6.15625 15.9336H13.5437C16.9437 15.9336 19.7 18.4814 19.7 21.6242V23.9005ZM9.85 13.6574C5.76999 13.6574 2.4625 10.6001 2.4625 6.8287C2.4625 3.05731 5.76999 0 9.85 0C13.93 0 17.2375 3.05731 17.2375 6.8287C17.2375 10.6001 13.93 13.6574 9.85 13.6574ZM9.85 11.3812C12.57 11.3812 14.775 9.34296 14.775 6.8287C14.775 4.31444 12.57 2.27623 9.85 2.27623C7.13 2.27623 4.925 4.31444 4.925 6.8287C4.925 9.34296 7.13 11.3812 9.85 11.3812Z" fill="#FF6967"/>
<path d="M0 24.625H19.7" stroke="white" stroke-width="1.5"/>
</svg>
