<svg width="29" height="26" viewBox="0 0 29 26" fill="none" xmlns="http://www.w3.org/2000/svg">
<path d="M24.1738 8.56377V20.1765C24.1738 21.4298 23.6837 22.6318 22.8115 23.5181C21.9392 24.4044 20.7562 24.9023 19.5226 24.9023H17.542V20.4876C17.542 19.6416 17.2112 18.8301 16.6224 18.2319C16.0337 17.6336 15.2351 17.2976 14.4025 17.2976C13.5698 17.2976 12.7712 17.6336 12.1825 18.2319C11.5937 18.8301 11.2629 19.6416 11.2629 20.4876V24.9023H9.2823C8.04874 24.9023 6.8657 24.4044 5.99343 23.5181C5.12117 22.6318 4.63114 21.4298 4.63114 20.1765V8.56379M27.9025 12.7096L19.228 3.06482C18.6157 2.3835 17.8703 1.83925 17.0395 1.46693C16.2086 1.09461 15.3105 0.902344 14.4025 0.902344C13.4944 0.902344 12.5963 1.09461 11.7654 1.46693C10.9346 1.83925 10.1892 2.3835 9.57688 3.06482L0.902466 12.7096" stroke="#FF6967" stroke-width="1.80503" stroke-linecap="round" stroke-linejoin="round"/>
</svg>
