<svg width="29" height="29" viewBox="0 0 29 29" fill="none" xmlns="http://www.w3.org/2000/svg">
<path d="M1.02899 15.9486L11.3181 21.1112C13.0664 21.9754 14.9916 21.9754 16.7399 21.1112L27.029 15.9486M1.02899 21.2178L11.3181 26.3802C13.0664 27.2444 14.9916 27.2444 16.7399 26.3802L27.029 21.2178M24.8504 5.387L16.3508 1.53883C14.8426 0.858151 13.2064 0.858151 11.6983 1.53883L3.19858 5.387C2.68276 5.62234 2.23532 6.06478 1.91856 6.65271C1.60181 7.24064 1.43156 7.94477 1.43156 8.66684C1.43156 9.38891 1.60181 10.0929 1.91856 10.6808C2.23532 11.2688 2.68276 11.7113 3.19858 11.9467L11.5909 15.7474C13.1566 16.4579 14.8566 16.4579 16.4223 15.7474L24.8146 11.9467C25.3318 11.7163 25.7816 11.278 26.1016 10.6931C26.4216 10.1082 26.5957 9.40585 26.5997 8.68375C26.6036 7.96166 26.4373 7.25581 26.1237 6.66485C25.8101 6.07389 25.365 5.62723 24.8504 5.387Z" stroke="#FF6967" stroke-width="2.05756" stroke-linecap="round" stroke-linejoin="round"/>
</svg>
