<svg width="18" height="18" viewBox="0 0 18 18" fill="none" xmlns="http://www.w3.org/2000/svg">
<path d="M10.0555 1.14296L9.1888 0.275483C8.8218 -0.0918276 8.22835 -0.0918276 7.86525 0.275483L0.275368 7.86786C-0.0916328 8.23518 -0.0916328 8.82912 0.275368 9.19252L7.86525 16.7888C8.23225 17.1561 8.8257 17.1561 9.1888 16.7888L10.0555 15.9213C10.4264 15.5501 10.4186 14.9444 10.0399 14.581L5.33529 10.0952L16.5561 10.0952C17.0754 10.0952 17.4932 9.67706 17.4932 9.15736L17.4932 7.90694C17.4932 7.38724 17.0754 6.96913 16.5561 6.96913L5.33529 6.96913L10.0399 2.48325C10.4225 2.11985 10.4304 1.51418 10.0555 1.14296Z" fill="#FF6967"/>
</svg>
