<svg width="18" height="18" viewBox="0 0 18 18" fill="none" xmlns="http://www.w3.org/2000/svg">
<path d="M10.0554 1.14296L9.18868 0.275483C8.82168 -0.0918276 8.22823 -0.0918276 7.86513 0.275483L0.275246 7.86786C-0.0917549 8.23518 -0.0917549 8.82912 0.275246 9.19252L7.86513 16.7888C8.23213 17.1561 8.82558 17.1561 9.18868 16.7888L10.0554 15.9213C10.4263 15.5501 10.4185 14.9444 10.0398 14.581L5.33517 10.0952L16.556 10.0952C17.0753 10.0952 17.493 9.67706 17.493 9.15736L17.493 7.90694C17.493 7.38724 17.0753 6.96913 16.556 6.96913L5.33517 6.96913L10.0398 2.48325C10.4224 2.11985 10.4302 1.51418 10.0554 1.14296Z" fill="white"/>
</svg>
