<svg width="29" height="29" viewBox="0 0 29 29" fill="none" xmlns="http://www.w3.org/2000/svg">
<path d="M1.02899 15.9491L11.3181 21.1117C13.0664 21.9759 14.9916 21.9759 16.7399 21.1117L27.029 15.9491M1.02899 21.2182L11.3181 26.3807C13.0664 27.2448 14.9916 27.2448 16.7399 26.3807L27.029 21.2182M24.8504 5.38748L16.3508 1.53932C14.8426 0.858639 13.2064 0.858639 11.6983 1.53932L3.19858 5.38748C2.68276 5.62283 2.23532 6.06527 1.91856 6.6532C1.60181 7.24113 1.43156 7.94526 1.43156 8.66733C1.43156 9.3894 1.60181 10.0934 1.91856 10.6813C2.23532 11.2692 2.68276 11.7118 3.19858 11.9472L11.5909 15.7479C13.1566 16.4584 14.8566 16.4584 16.4223 15.7479L24.8146 11.9472C25.3318 11.7168 25.7816 11.2785 26.1016 10.6936C26.4216 10.1087 26.5957 9.40633 26.5997 8.68424C26.6036 7.96215 26.4373 7.2563 26.1237 6.66534C25.8101 6.07438 25.365 5.62772 24.8504 5.38748Z" stroke="white" stroke-width="2.05756" stroke-linecap="round" stroke-linejoin="round"/>
</svg>
