<svg width="28" height="28" viewBox="0 0 28 28" fill="none" xmlns="http://www.w3.org/2000/svg">
<path d="M10.3028 1H2.55046C1.69417 1 1 1.69416 1 2.55046V10.3028C1 11.159 1.69417 11.8532 2.55046 11.8532H10.3028C11.1591 11.8532 11.8532 11.159 11.8532 10.3028V2.55046C11.8532 1.69416 11.1591 1 10.3028 1Z" stroke="white" stroke-width="2" stroke-linecap="round" stroke-linejoin="round"/>
<path d="M25.4495 1H17.6972C16.8409 1 16.1467 1.69416 16.1467 2.55046V10.3028C16.1467 11.159 16.8409 11.8532 17.6972 11.8532H25.4495C26.3058 11.8532 27 11.159 27 10.3028V2.55046C27 1.69416 26.3058 1 25.4495 1Z" stroke="white" stroke-width="2" stroke-linecap="round" stroke-linejoin="round"/>
<path d="M25.4495 16.1465H17.6972C16.8409 16.1465 16.1467 16.8406 16.1467 17.6969V25.4492C16.1467 26.3055 16.8409 26.9997 17.6972 26.9997H25.4495C26.3058 26.9997 27 26.3055 27 25.4492V17.6969C27 16.8406 26.3058 16.1465 25.4495 16.1465Z" stroke="white" stroke-width="2" stroke-linecap="round" stroke-linejoin="round"/>
<path d="M10.3028 16.1465H2.55046C1.69417 16.1465 1 16.8406 1 17.6969V25.4492C1 26.3055 1.69417 26.9997 2.55046 26.9997H10.3028C11.1591 26.9997 11.8532 26.3055 11.8532 25.4492V17.6969C11.8532 16.8406 11.1591 16.1465 10.3028 16.1465Z" stroke="white" stroke-width="2" stroke-linecap="round" stroke-linejoin="round"/>
</svg>
