<svg width="11" height="11" viewBox="0 0 11 11" fill="none" xmlns="http://www.w3.org/2000/svg">
<path d="M7.02474 1.02301C7.63436 0.0539013 8.81548 0.291616 9.50435 1.00944C10.1932 1.72727 10.2953 2.80022 9.57752 3.48909M9.57752 3.48909C10.0179 4.66122 10.0179 5.95335 9.57752 7.12548C8.44972 10.0943 5.23703 9.85962 5.23703 9.85962C5.23703 9.85962 2.02433 10.0943 0.89653 7.12548C0.457251 5.95315 0.457245 4.66141 0.896525 3.48908M9.57752 3.48909C8.44972 0.520235 5.23703 0.756465 5.23703 0.756465C5.23703 0.756465 2.02432 0.520226 0.896525 3.48908M3.4432 1.02509C2.68117 0.206277 1.60824 0.236777 0.920888 0.954606C0.233541 1.67243 0.178697 2.80021 0.896525 3.48908M7.912 9.17806L8.83224 10.3809M2.56322 9.17878L1.64177 10.3809M5.23701 3.23001V4.51935C5.23716 4.76481 5.29375 5.00696 5.40236 5.22709C5.51097 5.44721 5.66867 5.63942 5.86337 5.7889L7.15428 6.778" stroke="#FF6967" stroke-width="0.762026" stroke-linecap="round" stroke-linejoin="round"/>
</svg>
