<svg width="15" height="11" viewBox="0 0 15 11" fill="none" xmlns="http://www.w3.org/2000/svg">
<path d="M2.21974 10.5V5.87355C2.21974 5.78969 2.23751 5.70664 2.27211 5.62918C2.3067 5.55172 2.35742 5.48138 2.42132 5.42217C2.48522 5.36295 2.56107 5.31602 2.64451 5.2841C2.72796 5.25218 2.81737 5.23587 2.90761 5.23612H3.9008C3.99104 5.23587 4.08044 5.25218 4.16389 5.2841C4.24734 5.31602 4.32318 5.36295 4.38709 5.42217C4.45099 5.48138 4.5017 5.55172 4.5363 5.62918C4.57089 5.70664 4.58867 5.78969 4.58867 5.87355V10.5M6.56482 10.5V3.38633C6.56482 3.21678 6.63729 3.05415 6.7663 2.93425C6.8953 2.81436 7.07029 2.747 7.25273 2.747H8.24791C8.33815 2.747 8.42751 2.76357 8.51086 2.79572C8.5942 2.82787 8.66989 2.87496 8.7336 2.93435C8.79732 2.99374 8.84782 3.06427 8.88217 3.14182C8.91652 3.21938 8.93406 3.30247 8.93379 3.38633V10.5M10.6331 10.5V1.13928C10.6331 0.969729 10.7056 0.807143 10.8346 0.68725C10.9636 0.567357 11.1386 0.5 11.3211 0.5H12.3162C12.4987 0.5 12.6737 0.567357 12.8027 0.68725C12.9317 0.807143 13.0042 0.969729 13.0042 1.13928V10.5M14.5 10.5H0.5" stroke="#FF6967" stroke-linecap="round" stroke-linejoin="round"/>
</svg>
