<svg width="20" height="20" viewBox="0 0 20 20" fill="none" xmlns="http://www.w3.org/2000/svg">
<path d="M18.1749 12.7276C17.7302 13.8475 17.059 14.8648 16.2029 15.7165C14.7921 17.1209 12.9451 18.0098 10.9619 18.2391C8.9787 18.4683 6.97583 18.0243 5.27853 16.9792C5.17361 16.9114 5.04996 16.8782 4.92499 16.8841C4.80002 16.89 4.68006 16.9348 4.58209 17.0121C3.75962 17.6715 1.6338 19.2539 0.904186 18.5287C0.174573 17.8034 1.73993 15.6605 2.40322 14.8363C2.47854 14.7388 2.52153 14.6204 2.52629 14.4976C2.53104 14.3748 2.4973 14.2535 2.42973 14.1505C1.32013 12.3773 0.881636 10.2694 1.19275 8.20418C1.50387 6.13892 2.54429 4.25118 4.12774 2.87887C5.74312 1.48335 7.81122 0.714844 9.95136 0.714844C12.0915 0.714844 14.1596 1.48335 15.775 2.87887C16.686 3.67237 17.4235 4.64328 17.9418 5.73151C18.4601 6.81974 18.7482 8.00212 18.7883 9.2055C18.8284 10.4089 18.6197 11.6076 18.1749 12.7276Z" stroke="white" stroke-width="1.43" stroke-linecap="round" stroke-linejoin="round"/>
</svg>
