<svg width="21" height="21" viewBox="0 0 21 21" fill="none" xmlns="http://www.w3.org/2000/svg">
<path d="M11.4026 19.6554C11.4026 18.364 11.4026 15.8673 11.4026 14.3473H13.7776C13.8918 14.3473 14.0012 14.302 14.082 14.2212C14.1627 14.1405 14.208 14.031 14.208 13.9169V11.2865C14.208 11.1724 14.1627 11.0629 14.082 10.9822C14.0012 10.9014 13.8918 10.8561 13.7776 10.8561H11.4026C11.4026 9.8289 11.4026 9.95062 11.4026 9.30937C11.4034 9.03195 11.5141 8.76615 11.7106 8.57026C11.907 8.37437 12.1731 8.26437 12.4506 8.26437H14.1932V5.54796C14.1924 5.34455 14.1111 5.14974 13.967 5.00618C13.8229 4.86263 13.6277 4.78203 13.4243 4.78203H11.2482C10.7909 4.78203 10.3381 4.8721 9.91557 5.04711C9.49307 5.22211 9.1092 5.47862 8.78584 5.80199C8.46247 6.12535 8.20597 6.50924 8.03096 6.93174C7.85596 7.35423 7.76587 7.80706 7.76587 8.26437C7.76587 8.26437 7.72729 8.76906 7.70354 10.8561H5.40573C5.27818 10.8561 5.15585 10.9068 5.06566 10.9969C4.97547 11.0871 4.9248 11.2095 4.9248 11.337V13.8664C4.9244 13.9297 4.93657 13.9924 4.9606 14.0509C4.98463 14.1094 5.02002 14.1626 5.06475 14.2074C5.10949 14.2521 5.16267 14.2875 5.2212 14.3115C5.27973 14.3356 5.34246 14.3477 5.40573 14.3473H7.6768C7.6768 15.8762 7.6768 18.0731 7.71836 19.4269M7.72431 19.4001C5.70875 18.8525 3.92984 17.656 2.6628 15.9955C1.39576 14.3351 0.711225 12.3035 0.715104 10.2148C0.715104 7.69528 1.71599 5.27892 3.49758 3.49733C5.27917 1.71573 7.69554 0.714844 10.2151 0.714844C12.7346 0.714844 15.151 1.71573 16.9326 3.49733C18.7142 5.27892 19.7151 7.69528 19.7151 10.2148C19.7166 12.5298 18.8728 14.7657 17.3422 16.5024C15.8115 18.2391 13.6994 19.3572 11.4026 19.6465" stroke="white" stroke-width="1.43" stroke-linecap="round" stroke-linejoin="round"/>
</svg>
