<svg width="20" height="20" viewBox="0 0 20 20" fill="none" xmlns="http://www.w3.org/2000/svg">
<path d="M8.40028 14.6435C11.0112 16.6777 13.8258 17.3182 15.416 16.0029C17.4944 14.2852 16.692 9.88051 13.6197 6.16287L13.0627 5.58618M10.891 3.59118C8.4052 1.8072 5.80162 1.3017 4.29494 2.54582C2.21649 4.26354 3.02137 8.66824 6.09118 12.3859M13.6418 4.59725C15.789 4.40094 17.438 4.86717 17.9582 6.00087C18.8539 7.96398 16.027 11.1761 11.6419 13.181C7.25677 15.1858 2.97719 15.2202 2.0717 13.2595C1.16622 11.2988 4.00291 8.08424 8.38801 6.07941C9.10963 5.74848 9.85135 5.46328 10.6088 5.22546M7.1856 18.1403C7.32793 18.1722 7.46536 18.2016 7.59787 18.2262C8.30047 18.3655 9.01703 18.4215 9.73274 18.393C9.73274 18.393 16.0049 18.8544 18.206 13.0558C19.0648 10.7674 19.0648 8.24518 18.206 5.95673C15.9975 0.160647 9.73274 0.621981 9.73274 0.621981C9.73274 0.621981 3.4606 0.160647 1.25947 5.95673C0.398212 8.24474 0.398212 10.7678 1.25947 13.0558C1.83314 14.6492 2.9076 16.0138 4.32191 16.9453C4.52068 17.0753 4.7219 17.1906 4.92558 17.3011M11.9413 5.58373C12.1721 5.59701 12.4014 5.538 12.5971 5.41484C12.7929 5.29168 12.9453 5.11051 13.0332 4.89662C13.1437 4.60152 13.1437 4.27643 13.0332 3.98133C12.9342 3.77585 12.7792 3.60247 12.586 3.48115C12.3928 3.35982 12.1694 3.29549 11.9413 3.29549C11.7131 3.29549 11.4897 3.35982 11.2965 3.48115C11.1033 3.60247 10.9483 3.77585 10.8493 3.98133C10.7388 4.27643 10.7388 4.60152 10.8493 4.89662C10.9375 5.11029 11.09 5.29125 11.2857 5.41436C11.4813 5.53747 11.7104 5.59665 11.9413 5.58373ZM6.101 18.6114C6.3318 18.6244 6.56091 18.5651 6.75657 18.442C6.95223 18.3189 7.10474 18.138 7.19298 17.9243C7.30344 17.6292 7.30344 17.3042 7.19298 17.009C7.09393 16.8036 6.93892 16.6302 6.74576 16.5089C6.55259 16.3875 6.3291 16.3232 6.101 16.3232C5.87289 16.3232 5.64942 16.3875 5.45625 16.5089C5.26308 16.6302 5.10806 16.8036 5.00901 17.009C4.89855 17.3042 4.89855 17.6292 5.00901 17.9243C5.09694 18.1382 5.24941 18.3193 5.44514 18.4425C5.64087 18.5657 5.87012 18.6247 6.101 18.6114Z" stroke="white" stroke-width="1.22694" stroke-linecap="round" stroke-linejoin="round"/>
</svg>
