<svg width="19" height="20" viewBox="0 0 19 20" fill="none" xmlns="http://www.w3.org/2000/svg">
<path d="M10.4488 18.7406L9.98628 18.7656H8.62259L8.1601 18.7406H8.08302L7.83401 18.7218H7.69765L7.48124 18.6998L7.18478 18.6653H7.11067C4.43367 18.3143 1.78037 17.1264 1.13409 13.9263C0.85068 12.609 0.730114 11.2584 0.775392 9.90824C0.740334 8.62609 0.852826 7.34419 1.11039 6.09073L1.13113 6.06879C1.48391 4.486 2.16576 3.02858 3.4346 2.14786C5.05325 1.0258 7.06916 0.765653 8.92498 0.765653H9.68093C11.5397 0.762518 13.5556 1.0258 15.1713 2.14786C16.4401 3.02858 17.122 4.50167 17.4778 6.06879L17.4955 6.09073C17.7531 7.34419 17.8656 8.62609 17.8305 9.90824C17.8772 11.2584 17.7567 12.6093 17.4718 13.9263C16.8315 17.1264 14.1633 18.3049 11.4952 18.6653H11.4241L11.1276 18.6998L10.9083 18.7218H10.7749L10.5258 18.7406H10.4488Z" stroke="white" stroke-width="1.53215" stroke-linejoin="round"/>
</svg>
