<svg width="29" height="26" viewBox="0 0 29 26" fill="none" xmlns="http://www.w3.org/2000/svg">
<path d="M24.1738 8.56377V20.1765C24.1738 21.4298 23.6838 22.6318 22.8115 23.5181C21.9393 24.4044 20.7562 24.9023 19.5227 24.9023H17.5421V20.4876C17.5421 19.6416 17.2113 18.8301 16.6225 18.2319C16.0337 17.6336 15.2352 17.2976 14.4025 17.2976C13.5699 17.2976 12.7713 17.6336 12.1825 18.2319C11.5938 18.8301 11.263 19.6416 11.263 20.4876V24.9023H9.28237C8.0488 24.9023 6.86576 24.4044 5.99349 23.5181C5.12123 22.6318 4.63121 21.4298 4.63121 20.1765V8.56379M27.9025 12.7096L19.2281 3.06482C18.6158 2.3835 17.8704 1.83925 17.0396 1.46693C16.2087 1.09461 15.3106 0.902344 14.4025 0.902344C13.4945 0.902344 12.5964 1.09461 11.7655 1.46693C10.9346 1.83925 10.1893 2.3835 9.57694 3.06482L0.902527 12.7096" stroke="white" stroke-width="1.80503" stroke-linecap="round" stroke-linejoin="round"/>
</svg>
