<svg width="20" height="21" viewBox="0 0 20 21" fill="none" xmlns="http://www.w3.org/2000/svg">
<path d="M1.02871 13.1131C0.833778 14.4355 1.70528 15.3533 2.77233 15.8108C6.86319 17.5645 12.556 17.5645 16.6469 15.8108C17.7139 15.3533 18.5855 14.4355 18.3905 13.1131C18.2707 12.3005 17.6783 11.6238 17.2395 10.963C16.6646 10.0868 16.6075 9.13115 16.6074 8.11443C16.6074 4.18524 13.5192 1 9.70962 1C5.90006 1 2.81181 4.18524 2.81181 8.11443C2.81173 9.13115 2.75461 10.0868 2.17976 10.963C1.74088 11.6238 1.14851 12.3005 1.02871 13.1131Z" stroke="white" stroke-width="2" stroke-linecap="round" stroke-linejoin="round"/>
<path d="M6.04297 17.126C6.46325 18.7625 7.94554 19.9717 9.70964 19.9717C11.4737 19.9717 12.956 18.7625 13.3763 17.126" stroke="white" stroke-width="2" stroke-linecap="round" stroke-linejoin="round"/>
</svg>
