<svg width="22" height="22" viewBox="0 0 22 22" fill="none" xmlns="http://www.w3.org/2000/svg">
<path d="M11.0048 3.14645C11.0048 3.14645 10.5535 3.54562 10.0866 4.25669M9.09289 8.03238C8.93878 6.42282 9.524 5.11339 10.0866 4.25669M10.0866 4.25669C10.6283 3.4346 11.3008 2.79822 11.9886 2.31405M11.9886 2.31405C13.1996 1.46163 14.458 1.08105 15.1335 0.989571C15.9233 0.956151 16.7112 1.09359 17.4496 1.39352C18.188 1.69345 18.8616 2.14964 19.4296 2.73454C21.8859 5.29617 22.2466 10.1263 20.0264 12.9776C17.8062 15.8289 14.1661 17.0923 11.9263 19.9924C11.5634 20.4538 11.254 20.9599 11.0047 21.5C10.7566 20.96 10.4484 20.4539 10.0866 19.9924C7.84343 17.0923 4.22606 15.8568 1.98292 12.9776C-0.260217 10.0984 0.12358 5.29966 2.57988 2.73454C3.89579 1.05939 6.90548 -1.10781 11.9886 2.31405Z" stroke="white" stroke-linecap="round" stroke-linejoin="round"/>
</svg>
