<svg width="20" height="21" viewBox="0 0 20 21" fill="none" xmlns="http://www.w3.org/2000/svg">
<path d="M8.41588 0C3.76789 0 0.000105198 3.89948 0 8.70905C0 13.5186 3.76789 17.4181 8.41588 17.4181C10.3481 17.4181 12.1614 16.7116 13.582 15.5783L18.1796 20.3781C18.5905 20.8027 19.281 20.8027 19.6919 20.3781C20.1027 19.9524 20.1027 19.2383 19.6919 18.8127L15.0568 14.0488C16.1518 12.5791 16.8318 10.7089 16.8318 8.70905C16.8318 3.89948 13.0639 0 8.41588 0ZM8.41588 2.17726C11.9018 2.17726 14.7277 5.10133 14.7278 8.70905C14.7278 12.3168 11.9018 15.2408 8.41588 15.2408C4.92992 15.2408 2.10407 12.3168 2.10397 8.70905C2.10397 5.10133 4.92992 2.17726 8.41588 2.17726Z" fill="white"/>
</svg>
