<svg width="22" height="22" viewBox="0 0 22 22" fill="none" xmlns="http://www.w3.org/2000/svg">
<path d="M8.8897 0C3.98003 0 0.000111121 3.99446 0 8.92118C0 13.8479 3.98003 17.8424 8.8897 17.8424C10.9307 17.8424 12.8461 17.1186 14.3466 15.9578L19.2031 20.8744C19.6371 21.3094 20.3665 21.3094 20.8006 20.8744C21.2345 20.4384 21.2345 19.7069 20.8006 19.2709L15.9046 14.391C17.0611 12.8855 17.7794 10.9697 17.7794 8.92118C17.7794 3.99446 13.7994 0 8.8897 0ZM8.8897 2.2303C12.5719 2.2303 15.5569 5.22558 15.557 8.92118C15.557 12.6168 12.5719 15.6121 8.8897 15.6121C5.20748 15.6121 2.22254 12.6168 2.22243 8.92118C2.22243 5.22558 5.20748 2.2303 8.8897 2.2303Z" fill="#FF6967"/>
</svg>
