<svg width="20" height="21" viewBox="0 0 20 21" fill="none" xmlns="http://www.w3.org/2000/svg">
<path d="M7.03439 11.1131L9.05137 13.1184L13.736 7.76806M18.8879 5.91591C19.2901 10.0383 18.9174 17.8033 10.9027 19.7202C10.2116 19.8851 9.49113 19.8851 8.79999 19.7202C0.797135 17.8033 0.424496 10.0472 0.814879 5.91591C0.906063 5.13475 1.22654 4.3977 1.73627 3.79696C2.24599 3.19622 2.92232 2.75847 3.68063 2.53846L9.29979 0.792334C9.64973 0.68641 10.0234 0.68641 10.3733 0.792334L15.9925 2.53846C16.7569 2.75249 17.4402 3.1878 17.9557 3.78912C18.4712 4.39045 18.7956 5.13068 18.8879 5.91591Z" stroke="white" stroke-width="1.42768" stroke-linecap="round" stroke-linejoin="round"/>
</svg>
