<svg width="14" height="17" viewBox="0 0 14 17" fill="none" xmlns="http://www.w3.org/2000/svg">
<path d="M5.01895 1.46426L10.9581 5.95246C11.3448 6.24491 11.6584 6.62249 11.8743 7.05563C12.0902 7.48877 12.2025 7.96576 12.2025 8.4493C12.2025 8.93283 12.0902 9.40973 11.8743 9.84287C11.6584 10.276 11.3448 10.6536 10.9581 10.946L5.01895 15.438C4.6424 15.7214 4.19404 15.8947 3.72404 15.9383C3.25404 15.9819 2.78098 15.8942 2.3583 15.6849C1.93563 15.4757 1.57997 15.1533 1.33121 14.7539C1.08244 14.3544 0.950425 13.8938 0.950073 13.4239V3.47465C0.949705 3.00439 1.08134 2.54335 1.33009 2.14361C1.57884 1.74386 1.93486 1.42131 2.35793 1.21227C2.78101 1.00323 3.25442 0.916029 3.7246 0.960555C4.19478 1.00508 4.64304 1.17956 5.01895 1.46426Z" stroke="#FF6967" stroke-width="1.90016" stroke-linecap="round" stroke-linejoin="round"/>
</svg>
