<svg width="21" height="20" viewBox="0 0 21 20" fill="none" xmlns="http://www.w3.org/2000/svg">
<path d="M4.95111 8.36H7.76068M4.95111 11.2987H15.2105M19.3243 18.301L17.8456 15.2563C18.418 14.4099 18.842 13.473 19.0996 12.4854C19.6011 10.6276 19.5703 8.66719 19.0108 6.82591C16.9879 0.218228 10.0853 0.72176 10.0853 0.72176C10.0853 0.72176 3.082 0.209394 1.11529 6.97314C0.580059 8.82601 0.580059 10.7916 1.11529 12.6444C3.082 19.417 10.0853 18.8988 10.0853 18.8988C11.9773 18.9582 13.8473 18.4802 15.4767 17.5207L18.5465 19.0666C18.6544 19.1121 18.7735 19.1246 18.8885 19.1026C19.0036 19.0806 19.1095 19.0251 19.1928 18.943C19.2761 18.861 19.3331 18.7562 19.3565 18.6419C19.38 18.5276 19.3687 18.4089 19.3243 18.301Z" stroke="white" stroke-width="1.42768" stroke-linecap="round" stroke-linejoin="round"/>
</svg>
