<svg width="19" height="15" viewBox="0 0 19 15" fill="none" xmlns="http://www.w3.org/2000/svg">
<path d="M17.0958 5.53982L12.1247 12.0894C11.8008 12.5159 11.3826 12.8617 10.9028 13.0998C10.4231 13.3378 9.89478 13.4617 9.35921 13.4617C8.82365 13.4617 8.29544 13.3378 7.8157 13.0998C7.33595 12.8617 6.91775 12.5159 6.59383 12.0894L1.61852 5.53982C1.30462 5.12456 1.11272 4.63012 1.06441 4.11181C1.01611 3.59351 1.11332 3.07182 1.34506 2.6057C1.57681 2.13959 1.9339 1.74737 2.3763 1.47304C2.81869 1.19871 3.32887 1.05312 3.84942 1.05273L14.8691 1.05273C15.39 1.05233 15.9006 1.19749 16.3434 1.47181C16.7861 1.74613 17.1434 2.13873 17.3749 2.60529C17.6064 3.07185 17.703 3.59392 17.6537 4.11243C17.6044 4.63094 17.4111 5.12528 17.0958 5.53982Z" stroke="#FF6967" stroke-width="2.10461" stroke-linecap="round" stroke-linejoin="round"/>
</svg>
