<svg width="21" height="21" viewBox="0 0 21 21" fill="none" xmlns="http://www.w3.org/2000/svg">
<path d="M10.3125 2.0625C13.147 2.0625 15.6491 3.49208 17.1348 5.67188H14.4375V7.73438H20.625V1.54688H18.5625V4.12434C16.6817 1.62077 13.6872 0 10.3125 0C4.61706 0 0 4.61706 0 10.3125H2.0625C2.0625 5.75615 5.75615 2.0625 10.3125 2.0625ZM18.5625 10.3125C18.5625 14.8689 14.8689 18.5625 10.3125 18.5625C7.47805 18.5625 4.97586 17.1329 3.49019 14.9531H6.1875V12.8906H0V19.0781H2.0625V16.5006C3.9433 19.0042 6.93788 20.625 10.3125 20.625C16.0079 20.625 20.625 16.0079 20.625 10.3125H18.5625Z" fill="white"/>
</svg>
