<svg width="23" height="16" viewBox="0 0 23 16" fill="none" xmlns="http://www.w3.org/2000/svg">
<path d="M3.96827 14.7085V7.84765C3.97371 5.95706 4.72715 4.14547 6.064 2.80862C7.40085 1.47177 9.21245 0.718329 11.103 0.712891C12.9936 0.718329 14.8052 1.47177 16.1421 2.80862C17.4789 4.14547 18.2323 5.95706 18.2378 7.84765V14.6968M7.93464 5.5773C8.25664 5.02197 8.71868 4.56089 9.27466 4.24001C9.83064 3.91913 10.4611 3.7497 11.103 3.74872C11.7453 3.74978 12.3761 3.91917 12.9326 4.24001C13.489 4.56085 13.9517 5.02194 14.2744 5.5773M20.9851 8.84878C20.4521 7.99779 19.3508 7.79169 18.4027 7.76519H18.2378V14.7262C18.9322 14.7638 19.6243 14.6197 20.246 14.3081C21.041 13.8193 21.3532 12.8358 21.4474 11.976C21.4799 11.6826 21.4966 11.3877 21.4974 11.0926C21.5401 10.3115 21.3626 9.534 20.9851 8.84878ZM1.2298 8.84878C1.76571 7.99779 2.867 7.79169 3.81516 7.76519H3.97709V14.7262C3.28368 14.7636 2.59253 14.6195 1.97184 14.3081C1.1768 13.8193 0.86465 12.8358 0.770423 11.976C0.737892 11.6826 0.721205 11.3877 0.720388 11.0926C0.676701 10.3117 0.853203 9.53424 1.2298 8.84878Z" stroke="white" stroke-width="1.42768" stroke-linecap="round" stroke-linejoin="round"/>
</svg>
