<svg width="17" height="18" viewBox="0 0 17 18" fill="none" xmlns="http://www.w3.org/2000/svg">
<path d="M1.02481 10.0132C0.863223 10.9972 1.58565 11.6801 2.47018 12.0205C5.86129 13.3254 10.5804 13.3254 13.9715 12.0205C14.856 11.6801 15.5784 10.9972 15.4168 10.0132C15.3175 9.40852 14.8265 8.905 14.4627 8.4133C13.9862 7.76136 13.9388 7.05028 13.9387 6.29375C13.9387 3.37009 11.3787 1 8.22083 1C5.06291 1 2.50291 3.37009 2.50291 6.29375C2.50284 7.05028 2.45549 7.76137 1.97897 8.4133C1.61517 8.905 1.12412 9.40852 1.02481 10.0132Z" stroke="white" stroke-width="2" stroke-linecap="round" stroke-linejoin="round"/>
<path d="M5.12708 13.375C5.48169 15.1541 6.73237 16.4688 8.22082 16.4688C9.70928 16.4688 10.96 15.1541 11.3146 13.375" stroke="white" stroke-width="2" stroke-linecap="round" stroke-linejoin="round"/>
</svg>
