<svg width="8" height="9" viewBox="0 0 8 9" fill="none" xmlns="http://www.w3.org/2000/svg">
<path d="M2.45957 5.20384L4.89452 7.00785M2.45957 5.20384C2.58332 5.00844 2.6555 4.7612 2.6555 4.4695C2.6555 4.17781 2.58332 3.94189 2.45957 3.76071M2.45957 5.20384C2.25132 5.53267 1.89704 5.71468 1.49502 5.71468C0.8541 5.71468 0.334534 5.25208 0.334534 4.4695C0.334534 3.68692 0.8541 3.30585 1.49502 3.30585C1.89704 3.30585 2.25132 3.45579 2.45957 3.76071M4.97464 2.02114L2.45957 3.76071M4.97464 2.02114C5.14598 2.46276 5.56382 2.66349 6.05208 2.66349C6.693 2.66349 7.21256 2.31762 7.21256 1.53504C7.21256 0.752463 6.693 0.334961 6.05208 0.334961C5.41116 0.334961 4.89159 0.752463 4.89159 1.53504C4.89159 1.72144 4.92107 1.88306 4.97464 2.02114ZM7.21256 7.20882C7.21256 7.9914 6.693 8.36439 6.05208 8.36439C5.41116 8.36439 4.89159 7.9914 4.89159 7.20882C4.89159 6.42624 5.41116 5.95556 6.05208 5.95556C6.693 5.95556 7.21256 6.42624 7.21256 7.20882Z" stroke="white" stroke-width="0.669119" stroke-linecap="round" stroke-linejoin="round"/>
</svg>
