<svg width="14" height="14" viewBox="0 0 14 14" fill="none" xmlns="http://www.w3.org/2000/svg">
<path d="M9.53373 2.8572L8.19018 1.05499C8.03944 0.854201 7.84636 0.691714 7.62586 0.579966C7.40537 0.468219 7.16318 0.410156 6.91775 0.410156C6.67231 0.410156 6.43013 0.468219 6.20963 0.579966C5.98914 0.691714 5.79619 0.854201 5.64545 1.05499L4.3019 2.8572C4.11316 3.11113 3.85879 3.30431 3.56833 3.4143L1.50197 4.18589C1.26606 4.26927 1.05203 4.40823 0.876647 4.59182C0.701267 4.77541 0.569281 4.99863 0.491165 5.24399C0.413049 5.48935 0.390841 5.75012 0.426349 6.00586C0.461858 6.2616 0.554149 6.50532 0.695845 6.71788L1.93193 8.60367C2.10188 8.86909 2.19511 9.17938 2.20064 9.49788L2.27044 11.7736C2.27562 12.0313 2.33832 12.2844 2.45348 12.5128C2.56864 12.7413 2.73321 12.939 2.93435 13.0906C3.13548 13.2422 3.36763 13.3436 3.61281 13.3866C3.85799 13.4297 4.10946 13.4134 4.34756 13.339L6.45971 12.704C6.75536 12.6143 7.06951 12.6143 7.36516 12.704L9.47731 13.339C9.71541 13.4134 9.96688 13.4297 10.2121 13.3866C10.4572 13.3436 10.6894 13.2422 10.8905 13.0906C11.0917 12.939 11.2562 12.7413 11.3714 12.5128C11.4866 12.2844 11.5493 12.0313 11.5544 11.7736L11.6242 9.49788C11.6315 9.17967 11.7246 8.86987 11.8929 8.60367L13.129 6.71788C13.2682 6.50542 13.3587 6.26279 13.3937 6.00851C13.4286 5.75423 13.407 5.4951 13.3306 5.2508C13.2541 5.00649 13.1247 4.78352 12.9524 4.59896C12.7801 4.4144 12.5693 4.27312 12.3363 4.18589L10.2673 3.4143C9.97684 3.30431 9.72247 3.11113 9.53373 2.8572Z" fill="#FF6967" stroke="#FF6967" stroke-width="0.819783" stroke-linecap="round" stroke-linejoin="round"/>
</svg>
