<svg width="23" height="23" viewBox="0 0 23 23" fill="none" xmlns="http://www.w3.org/2000/svg">
<path d="M16.1421 4.32939L13.7651 1.14085C13.4984 0.785618 13.1568 0.49814 12.7667 0.300433C12.3766 0.102726 11.9481 0 11.5139 0C11.0796 0 10.6511 0.102726 10.261 0.300433C9.87093 0.49814 9.52956 0.785618 9.26287 1.14085L6.88583 4.32939C6.55191 4.77864 6.10186 5.12043 5.58797 5.31503L1.93211 6.68015C1.51472 6.82766 1.13605 7.07351 0.825761 7.39833C0.515473 7.72315 0.28196 8.11808 0.143755 8.55218C0.00555016 8.98627 -0.0337415 9.44763 0.0290811 9.90009C0.0919037 10.3526 0.255189 10.7837 0.505882 11.1598L2.69281 14.4962C2.99348 14.9658 3.15842 15.5148 3.16822 16.0783L3.29171 20.1046C3.30086 20.5606 3.41179 21.0082 3.61554 21.4124C3.81928 21.8167 4.11045 22.1665 4.4663 22.4347C4.82216 22.7029 5.23289 22.8822 5.66666 22.9584C6.10044 23.0347 6.54536 23.0058 6.96661 22.8742L10.7035 21.7507C11.2266 21.592 11.7824 21.592 12.3054 21.7507L16.0423 22.8742C16.4636 23.0058 16.9085 23.0347 17.3423 22.9584C17.776 22.8822 18.1868 22.7029 18.5426 22.4347C18.8985 22.1665 19.1896 21.8167 19.3934 21.4124C19.5971 21.0082 19.7081 20.5606 19.7172 20.1046L19.8407 16.0783C19.8536 15.5153 20.0183 14.9672 20.3161 14.4962L22.503 11.1598C22.7494 10.7839 22.9095 10.3547 22.9713 9.90479C23.0331 9.45491 22.9949 8.99643 22.8596 8.56421C22.7243 8.13198 22.4955 7.73749 22.1906 7.41096C21.8857 7.08443 21.5128 6.83447 21.1005 6.68015L17.44 5.31503C16.9261 5.12043 16.4761 4.77864 16.1421 4.32939Z" fill="#FF6967"/>
</svg>
