<svg width="22" height="20" viewBox="0 0 22 20" fill="none" xmlns="http://www.w3.org/2000/svg">
<path d="M20 7.43474V1.05263C20 0.471284 19.5026 0 18.8889 0H17.7778C15.5793 2.08278 11.4474 3.24977 8.88889 3.80296V15.1444C11.4474 15.6976 15.5793 16.8646 17.7778 18.9474H18.8889C19.5026 18.9474 20 18.4761 20 17.8947V11.5126C20.9584 11.2789 21.6667 10.4546 21.6667 9.47368C21.6667 8.49274 20.9584 7.66842 20 7.43474ZM2.22222 4.21053C0.994922 4.21053 0 5.15308 0 6.31579V12.6316C0 13.7943 0.994922 14.7368 2.22222 14.7368H3.33333L4.44444 20H6.66667V4.21053H2.22222Z" fill="#FF6967"/>
</svg>
