<svg width="26" height="26" viewBox="0 0 26 26" fill="none" xmlns="http://www.w3.org/2000/svg">
<path d="M13.0202 0C11.3315 0 9.42725 5.135 9.18302 11.7H16.8575C16.6132 5.1363 14.709 0 13.0202 0ZM8.89827 0.65C4.08277 2.2477 0.457126 6.6313 0 11.7H6.57087C6.71584 7.2293 7.52689 3.2643 8.89827 0.65ZM17.1422 0.65C18.5136 3.2643 19.3247 7.2293 19.4696 11.7H26C25.5272 6.5715 22.0047 2.2763 17.1422 0.65ZM0.040496 14.3C0.510683 19.5091 4.14417 23.777 8.93877 25.35C7.56869 22.7357 6.71584 18.7707 6.57087 14.3H0.040496ZM9.18302 14.3C9.42725 20.8637 11.3315 26 13.0202 26C14.709 26 16.6132 20.865 16.8575 14.3H9.18302ZM19.4696 14.3C19.3247 18.7707 18.4718 22.7357 17.1017 25.35C22.0269 23.6821 25.5194 19.344 26 14.3H19.4696Z" fill="white"/>
</svg>
