<svg width="26" height="26" viewBox="0 0 26 26" fill="none" xmlns="http://www.w3.org/2000/svg">
<path d="M13 26C5.8203 26 0 20.1796 0 13C0 5.8203 5.8203 0 13 0C20.1796 0 26 5.8203 26 13C26 20.1796 20.1796 26 13 26ZM10.023 22.9676C8.77166 20.3137 8.00452 17.3865 7.8355 14.3H2.68046C3.1954 18.4294 6.13131 21.8071 10.023 22.9676ZM10.4399 14.3C10.6354 17.4704 11.5411 20.4486 13 23.0776C14.4589 20.4486 15.3646 17.4704 15.5601 14.3H10.4399ZM23.3195 14.3H18.1645C17.9955 17.3865 17.2284 20.3137 15.977 22.9676C19.8687 21.8071 22.8046 18.4294 23.3195 14.3ZM2.68046 11.7H7.8355C8.00452 8.6135 8.77166 5.68629 10.023 3.03233C6.13131 4.19293 3.1954 7.57055 2.68046 11.7ZM10.4399 11.7H15.5601C15.3646 8.52959 14.4589 5.55132 13 2.92239C11.5411 5.55132 10.6354 8.52959 10.4399 11.7ZM15.977 3.03233C17.2284 5.68629 17.9955 8.6135 18.1645 11.7H23.3195C22.8046 7.57055 19.8687 4.19293 15.977 3.03233Z" fill="white"/>
</svg>
