<svg width="295" height="153" viewBox="0 0 295 153" fill="none" xmlns="http://www.w3.org/2000/svg">
<path d="M68.4625 148.563C49.4729 146.757 35.7996 141.62 25.9687 134.855C16.1423 128.093 10.1035 119.67 6.43347 111.205C-0.923768 94.2356 1.22901 77.0964 1.63276 72.8517C4.14608 46.4234 18.6238 27.2305 41.9816 15.5029C65.3885 3.75075 97.7395 -0.509007 135.881 3.1182C174.021 6.74532 214.787 17.9604 245.348 34.9166C275.979 51.9115 295.992 74.4455 293.504 100.615C292.278 113.508 282.665 123.487 267.329 131.085C252.007 138.675 231.194 143.769 208.069 146.974C161.836 153.38 106.66 152.195 68.4625 148.563Z" fill="white" fill-opacity="0.2" stroke="white" stroke-width="2"/>
</svg>
