<svg width="88" height="85" viewBox="0 0 88 85" fill="none" xmlns="http://www.w3.org/2000/svg">
<path d="M3 42.5C3 20.6848 21.2042 3 43.6603 3C66.1163 3 84.3206 20.6848 84.3206 42.5C84.3206 64.3152 66.1163 82 43.6603 82C21.2042 82 3 64.3152 3 42.5Z" fill="#FF6967"/>
<path d="M57.8553 33.6476L38.5778 52.375L32.0066 45.9913M43.6603 3C21.2042 3 3 20.6848 3 42.5C3 64.3152 21.2042 82 43.6603 82C66.1163 82 84.3206 64.3152 84.3206 42.5C84.3206 20.6848 66.1163 3 43.6603 3Z" stroke="white" stroke-width="6" stroke-linecap="round" stroke-linejoin="round"/>
</svg>
