<svg width="90" height="90" viewBox="0 0 90 90" fill="none" xmlns="http://www.w3.org/2000/svg">
<path fill-rule="evenodd" clip-rule="evenodd" d="M45 9.66659C25.4859 9.66659 9.66666 25.4859 9.66666 44.9999C9.66666 54.271 13.2356 62.7102 19.083 69.0166C19.3037 68.2862 19.5973 67.5687 19.9804 66.8839C21.2788 64.5623 22.9169 62.4156 24.8604 60.5173C26.8109 58.6123 29.0114 57.0135 31.3849 55.7504C27.77 52.2901 25.51 47.4541 25.51 42.0555C25.51 31.3878 34.3347 22.9166 45 22.9166C55.6653 22.9166 64.49 31.3878 64.49 42.0555C64.49 47.4541 62.23 52.2901 58.6151 55.7504C60.9886 57.0135 63.1891 58.6123 65.1396 60.5173C67.0831 62.4156 68.7211 64.5623 70.0196 66.8839C70.4026 67.5687 70.6963 68.2862 70.917 69.0166C76.7644 62.7102 80.3333 54.271 80.3333 44.9999C80.3333 25.4859 64.5141 9.66659 45 9.66659ZM62.4066 75.7561C62.5781 74.8739 62.664 74.0458 62.6666 73.3121C62.6709 72.0997 62.4488 71.4436 62.3102 71.1959C61.4244 69.6121 60.3038 68.1417 58.9675 66.8366C55.2805 63.2355 50.2581 61.1944 45 61.1944C39.7419 61.1944 34.7195 63.2355 31.0325 66.8366C29.6962 68.1417 28.5756 69.6121 27.6898 71.1959C27.5512 71.4436 27.3291 72.0997 27.3334 73.312C27.336 74.0458 27.4219 74.8739 27.5934 75.7561C32.7283 78.6694 38.6643 80.3333 45 80.3333C51.3357 80.3333 57.2717 78.6694 62.4066 75.7561ZM45 52.361C50.9843 52.361 55.6567 47.6495 55.6567 42.0555C55.6567 36.4614 50.9843 31.7499 45 31.7499C39.0157 31.7499 34.3433 36.4614 34.3433 42.0555C34.3433 47.6495 39.0157 52.361 45 52.361ZM0.833328 44.9999C0.833328 20.6073 20.6074 0.833252 45 0.833252C69.3926 0.833252 89.1667 20.6073 89.1667 44.9999C89.1667 60.7112 80.9599 74.5025 68.6203 82.3259C61.7865 86.6585 53.6794 89.1666 45 89.1666C36.3206 89.1666 28.2135 86.6585 21.3797 82.3259C9.04009 74.5025 0.833328 60.7112 0.833328 44.9999Z" fill="white"/>
</svg>
